<?xml version="1.0" encoding="UTF-8" standalone="no"?>
<!DOCTYPE svg PUBLIC "-//W3C//DTD SVG 1.1//EN" "http://www.w3.org/Graphics/SVG/1.1/DTD/svg11.dtd">
<svg width="100%" height="100%" viewBox="0 0 2550 4200" version="1.1" xmlns="http://www.w3.org/2000/svg" xmlns:xlink="http://www.w3.org/1999/xlink" xml:space="preserve" xmlns:serif="http://www.serif.com/" style="fill-rule:evenodd;clip-rule:evenodd;stroke-linejoin:round;stroke-miterlimit:2;">
    <g transform="matrix(1.17472,0,0,1.17472,-169.147,-366.903)">
        <g transform="matrix(0.350211,0,0,0.4375,1463.87,904.942)">
            <rect x="622.4" y="340.266" width="1203.63" height="3575.33" style="fill:rgb(235,235,235);"/>
        </g>
        <g transform="matrix(0.755274,0,0,1,358.556,-27.9323)">
            <rect x="622.4" y="340.266" width="1203.63" height="3575.33" style="fill:rgb(235,235,235);"/>
        </g>
        <g transform="matrix(0.145148,0,0,0.26543,624.538,2130.89)">
            <rect x="622.4" y="340.266" width="1203.63" height="3575.33" style="fill:rgb(235,235,235);"/>
        </g>
        <g transform="matrix(0.350211,0,0,0.127841,1463.87,431.349)">
            <rect x="622.4" y="340.266" width="1203.63" height="3575.33" style="fill:rgb(235,235,235);"/>
        </g>
        <g transform="matrix(0.350211,0,0,0.127841,1463.87,431.349)">
            <rect x="622.4" y="340.266" width="1203.63" height="3575.33" style="fill:rgb(235,235,235);"/>
        </g>
        <g transform="matrix(0.350211,0,0,0.127841,1463.87,2711.64)">
            <rect x="622.4" y="340.266" width="1203.63" height="3575.33" style="fill:rgb(235,235,235);"/>
        </g>
        <g transform="matrix(0.350211,0,0,0.127841,1463.87,3229.65)">
            <rect x="622.4" y="340.266" width="1203.63" height="3575.33" style="fill:rgb(235,235,235);"/>
        </g>
        <g transform="matrix(0.363863,0.363863,-0.153921,0.153921,731.575,315.817)">
            <rect x="622.4" y="340.266" width="1203.63" height="3575.33" style="fill:rgb(235,235,235);"/>
        </g>
        <g transform="matrix(0.261603,0,0,0.403409,1574.89,977.486)">
            <rect x="622.4" y="340.266" width="1203.63" height="3575.33" style="fill:rgb(218,218,218);"/>
        </g>
        <g transform="matrix(0.261603,0,0,0.201705,1574.89,1046.12)">
            <rect x="622.4" y="340.266" width="1203.63" height="3575.33" style="fill:rgb(204,204,204);"/>
        </g>
        <g transform="matrix(0.452038,-0.260984,0.173587,0.300661,16.4642,1216.22)">
            <rect x="622.4" y="340.266" width="1203.63" height="3575.33" style="fill:rgb(235,235,235);"/>
        </g>
        <g transform="matrix(0.658228,0,0,0.965909,479.901,44.6109)">
            <rect x="622.4" y="340.266" width="1203.63" height="3575.33" style="fill:rgb(184,184,184);"/>
        </g>
        <g transform="matrix(0.388003,-0.224014,0.160336,0.277711,141.945,1219.63)">
            <rect x="622.4" y="340.266" width="1203.63" height="3575.33" style="fill:rgb(184,184,184);"/>
        </g>
        <g transform="matrix(0.316803,0.316803,-0.146648,0.146648,815.033,404.225)">
            <rect x="622.4" y="340.266" width="1203.63" height="3575.33" style="fill:rgb(184,184,184);"/>
        </g>
        <g transform="matrix(0.363062,0,0,0.100083,1401.27,3284.81)">
            <rect x="622.4" y="340.266" width="1203.63" height="3575.33" style="fill:rgb(184,184,184);"/>
        </g>
        <g transform="matrix(0.363062,0,0,0.104344,1401.27,2761.64)">
            <rect x="622.4" y="340.266" width="1203.63" height="3575.33" style="fill:rgb(184,184,184);"/>
        </g>
        <g transform="matrix(0.363062,0,0,0.104344,1401.27,481.349)">
            <rect x="622.4" y="340.266" width="1203.63" height="3575.33" style="fill:rgb(184,184,184);"/>
        </g>
        <g transform="matrix(1,0,0,1,0,589.388)">
            <g transform="matrix(1,0,0,1,-32.2076,187.757)">
                <circle cx="834.438" cy="1795.23" r="55.144" style="fill:rgb(204,204,204);"/>
            </g>
            <g transform="matrix(1,0,0,1,-32.2076,421.779)">
                <circle cx="834.438" cy="1795.23" r="55.144" style="fill:rgb(204,204,204);"/>
            </g>
            <g transform="matrix(1,0,0,1,-32.2076,655.8)">
                <circle cx="834.438" cy="1795.23" r="55.144" style="fill:rgb(204,204,204);"/>
            </g>
            <g transform="matrix(1,0,0,1,-32.2076,-49.4024)">
                <circle cx="834.438" cy="1795.23" r="55.144" style="fill:rgb(204,204,204);"/>
            </g>
        </g>
        <g transform="matrix(1.256,0,0,0.593817,-180.036,1189.51)">
            <rect x="686.518" y="2322.33" width="72.708" height="12.888" style="fill:rgb(204,204,204);"/>
        </g>
        <g transform="matrix(1.256,0,0,0.593817,-180.036,952.352)">
            <rect x="686.518" y="2322.33" width="72.708" height="12.888" style="fill:rgb(204,204,204);"/>
        </g>
        <g transform="matrix(1.256,0,0,0.593817,-180.036,1423.53)">
            <rect x="686.518" y="2322.33" width="72.708" height="12.888" style="fill:rgb(204,204,204);"/>
        </g>
        <g transform="matrix(1.256,0,0,0.593817,-180.036,1657.55)">
            <rect x="686.518" y="2322.33" width="72.708" height="12.888" style="fill:rgb(204,204,204);"/>
        </g>
        <g transform="matrix(0.0176878,0,0,0.243216,1008.49,290.519)">
            <rect x="622.4" y="340.266" width="1203.63" height="3575.33" style="fill:rgb(132,132,132);"/>
        </g>
        <g transform="matrix(0.0176878,0,0,0.0467942,1253.35,945.131)">
            <rect x="622.4" y="340.266" width="1203.63" height="3575.33" style="fill:white;"/>
        </g>
        <g transform="matrix(0.0176878,0,0,0.0467942,1253.35,1366.16)">
            <rect x="622.4" y="340.266" width="1203.63" height="3575.33" style="fill:white;"/>
        </g>
        <g transform="matrix(0.0176878,0,0,0.0467942,1253.35,1787.19)">
            <rect x="622.4" y="340.266" width="1203.63" height="3575.33" style="fill:white;"/>
        </g>
        <g transform="matrix(0.0176878,0,0,0.0467942,1253.35,2208.22)">
            <rect x="622.4" y="340.266" width="1203.63" height="3575.33" style="fill:white;"/>
        </g>
        <g transform="matrix(0.0176878,0,0,0.0467942,1253.35,2629.25)">
            <rect x="622.4" y="340.266" width="1203.63" height="3575.33" style="fill:white;"/>
        </g>
        <g transform="matrix(0.0176878,0,0,0.0467942,1253.35,3050.29)">
            <rect x="622.4" y="340.266" width="1203.63" height="3575.33" style="fill:white;"/>
        </g>
        <g transform="matrix(0.140827,0,0,0.0213979,857.746,1159.07)">
            <rect x="622.4" y="340.266" width="1203.63" height="3575.33" style="fill:rgb(132,132,132);"/>
        </g>
        <g transform="matrix(0.0153181,-0.00884392,0.121608,0.210631,592.598,989.684)">
            <rect x="622.4" y="340.266" width="1203.63" height="3575.33" style="fill:rgb(132,132,132);"/>
        </g>
        <g transform="matrix(0.12196,-0.0704135,0.0106989,0.0185311,896.321,1817.25)">
            <rect x="622.4" y="340.266" width="1203.63" height="3575.33" style="fill:rgb(132,132,132);"/>
        </g>
        <g transform="matrix(0.0176878,0,0,0.243216,1499.94,290.519)">
            <rect x="622.4" y="340.266" width="1203.63" height="3575.33" style="fill:rgb(132,132,132);"/>
        </g>
        <g transform="matrix(0.140827,0,0,0.0213979,1349.19,1159.07)">
            <rect x="622.4" y="340.266" width="1203.63" height="3575.33" style="fill:rgb(132,132,132);"/>
        </g>
        <g transform="matrix(-1,1.22465e-16,-1.22465e-16,-1,2476.36,4158.01)">
            <text x="996.4px" y="3674.75px" style="font-family:'Impact', sans-serif;font-stretch:condensed;font-size:383.334px;fill:white;">50</text>
        </g>
        <g transform="matrix(1,0,0,1,85.3558,40.6765)">
            <text x="996.4px" y="3674.75px" style="font-family:'Impact', sans-serif;font-stretch:condensed;font-size:383.334px;fill:white;">50</text>
        </g>
    </g>
</svg>
